Simulation
nRows=16
nColumns=15
endheader
time  TH_x TH_y TH_z SC_y  SC_z  SC_x  AC_y  AC_z  AC_x  GH_y  GH_z  GH_yy  EL_x  PS_y
0.0  0.000000  0.000000  0.000000  -29.386332267700368  -0.4019121331811585  -2.6273098840593136  50.480571548897366  7.73887046073673  -3.2783860684221344  39.93834407138928  9.410500276375094  -10.29985334603837  22.793044658975475  0.000000
0.031  0.000000  0.000000  0.000000  -29.349145369719256  -0.3008164088178998  -2.3557935818308455  50.25230007505596  7.733027871425045  -3.512207394526857  39.858195044734714  9.558168023456654  -10.329386727945003  22.784718368529024  0.000000
0.062  0.000000  0.000000  0.000000  -29.213942191569597  -0.31658448869609546  -2.161133542094326  50.13513653653928  7.651121142854323  -3.7682471264954  39.82751826221398  9.65008176884998  -10.314642200581682  22.759121621386175  0.000000
0.093  0.000000  0.000000  0.000000  -29.241291707889225  -0.37827512556169846  -1.9873156691876266  50.07912227659323  7.5081910624546815  -3.970364182426993  39.83306016369111  9.745734441071887  -10.299035317606455  22.736002573895483  0.000000
0.124  0.000000  0.000000  0.000000  -29.25755806282421  -0.4566816836655982  -1.8603566686459516  50.056031287370956  7.365576224778162  -4.135473587077253  39.83267474929383  9.871056023345643  -10.332682870676509  22.659709254787835  0.000000
0.155  0.000000  0.000000  0.000000  -29.312325043522243  -0.5473122303176882  -1.7557449535983796  50.068087554582135  7.240365853522592  -4.275009483578663  39.81871638231867  10.0859911680711  -10.406013067450752  22.533701948929657  0.000000
0.186  0.000000  0.000000  0.000000  -29.36753066566349  -0.6303255855643939  -1.6681530748166138  50.08029720106889  7.117514459673547  -4.387485011370315  39.74542077591878  10.409705104586132  -10.549897766159539  22.380830470893144  0.000000
0.217  0.000000  0.000000  0.000000  -29.442074239021217  -0.7077633360860002  -1.5902476733331588  50.1129429449571  7.001740706049993  -4.484823446301917  39.61204159689025  10.861420025923557  -10.747271572487564  22.197895676097794  0.000000
0.248  0.000000  0.000000  0.000000  -29.527378659980673  -0.7766094931778436  -1.5156111782267558  50.140288874017024  6.8852509795610795  -4.563852418829196  39.39949273223988  11.430669237099366  -11.00320044739225  21.99955264577616  0.000000
0.279  0.000000  0.000000  0.000000  -29.625498869040886  -0.8357700117259639  -1.4413514869808288  50.179219983949984  6.775274943340956  -4.636391754008643  39.115300356140665  12.109270565646389  -11.294864843794393  21.789182908232537  0.000000
0.31  0.000000  0.000000  0.000000  -29.726636061990853  -0.8822652074448594  -1.3616961266674428  50.20961715550661  6.679716272503267  -4.701033307778917  38.76082066435845  12.86782559893698  -11.601399815757594  21.58683537611215  0.000000
0.34099999999999997  0.000000  0.000000  0.000000  -29.828486647600695  -0.9157680064623547  -1.2766907366529887  50.25039405856299  6.603960373638639  -4.758245004059635  38.33225566169517  13.693988134220891  -11.903642177891335  21.397780399482492  0.000000
0.372  0.000000  0.000000  0.000000  -29.934322452983274  -0.94101738346044  -1.1829226458300928  50.30920804645665  6.55120264561755  -4.797670220733445  37.804681690426044  14.57183317320742  -12.19027375348831  21.2425204229143  0.000000
0.403  0.000000  0.000000  0.000000  -30.049297172540932  -0.9635274986872203  -1.0786349198377403  50.41223723457349  6.519450219842623  -4.811754599035816  37.13866653709285  15.496950245263253  -12.455070547919577  21.134853316970982  0.000000
0.434  0.000000  0.000000  0.000000  -30.175203130484235  -0.9874048482707777  -0.9589765167325642  50.566389209513176  6.512014076547515  -4.799573557402405  36.30178596157718  16.461274514688302  -12.679852309535862  21.102294421354785  0.000000
0.46499999999999997  0.000000  0.000000  0.000000  -30.30136829901082  -1.0090446248196734  -0.8231147750233517  50.76635560573764  6.5302550679111695  -4.764955257317049  35.29047885124517  17.461911337839183  -12.840244450896567  21.150704781451147  0.000000
